<?xml version="1.0" encoding="iso-8859-1"?>
<!-- Generator: Adobe Illustrator 19.0.0, SVG Export Plug-In . SVG Version: 6.00 Build 0)  -->
<svg version="1.1" id="Layer_1" xmlns="http://www.w3.org/2000/svg" xmlns:xlink="http://www.w3.org/1999/xlink" x="0px" y="0px"
	 viewBox="0 0 512.001 512.001" style="enable-background:new 0 0 512.001 512.001;" xml:space="preserve">
<polygon style="fill:#DCD08E;" points="278.033,240.02 278.033,295.928 311.22,265.705 "/>
<path style="fill:#6DC0A7;" d="M360.044,214.581V65.752c0-4.295,5.253-6.455,8.261-3.428l85.271,85.729
	c21.525,21.657,22.5,57.096,1.339,79.12c-21.67,22.553-57.528,22.783-79.485,0.691L360.044,214.581z"/>
<path style="fill:#AAE4D5;" d="M447.699,253.122l-0.959-5.375l-12.488-12.494c-2.661-4.855-5.97-9.441-10.034-13.573l-2.75-3.329
	c-1.353-1.377-3.705-7.173-5.149-8.404c-23.664-20.152-58.804-20.607-80.969,1.93l-6.146,11.713l-20.308,22.846
	c-1.856,1.064-3.412,1.747-4.444,1.758l22.999,11.489c5.246,2.442,9.979,5.717,13.535,9.294l2.877,3.281
	c17.619,17.922,20.746,48.515,2.645,66.918l-18.709,20.042c-20.447,20.204-42.079,55.738-42.601,84.749
	c0.344,3.383,3.201,6.021,6.674,6.021c1.232,0,2.397-0.338,3.399-0.919c0.327-0.271,0.644-0.556,0.946-0.86l132.238-133.083
	C444.467,298.848,451.713,275.671,447.699,253.122z"/>
<g>
	<path style="fill:#6DC0A7;" d="M447.653,253.122l-0.959-5.375l-12.488-12.494c-2.661-4.855-5.97-9.441-10.034-13.573l-2.75-3.329
		c-1.353-1.377-2.767-2.662-4.211-3.891l-10.253,38.661c4.014,22.549-2.974,45.725-18.99,62.003c0,0-78.639,86.72-101.214,132.487
		c1.231,1.452,3.065,2.375,5.117,2.375c1.685,0,3.245-0.633,4.431-1.662c0.034-0.034,0.071-0.062,0.105-0.095L428.57,315.124
		C444.585,298.848,451.667,275.671,447.653,253.122z"/>
	<path style="fill:#6DC0A7;" d="M288.188,193.407c7.677-7.296,18.005-11.798,29.398-11.798c23.673,0,42.862,19.308,42.862,43.127
		s-19.19,43.127-42.862,43.127c-2.498,0-4.931-0.259-7.312-0.673c-20.182-3.497-35.551-21.149-35.551-42.454
		C274.724,213.194,288.361,193.407,288.188,193.407z"/>
</g>
<g>
	<path style="fill:#AAE4D5;" d="M340.667,230.614c0-20.571-16.574-37.248-37.019-37.248c-0.586,0-7.478,0.014-15.459,0.041
		c-8.274,7.863-13.464,18.973-13.464,31.327c0,21.305,15.368,38.957,35.551,42.454C327.547,264.037,340.667,248.9,340.667,230.614z"
		/>
	<path style="fill:#AAE4D5;" d="M391.302,200.264l93.524-93.991c7.397-7.442,20.092-2.134,20.092,8.426v107.389
		c0,32.147-26.009,58.207-57.96,58.207s-57.906-26.061-57.906-58.207l-1.154-12.532C387.649,206.1,388.876,202.706,391.302,200.264z
		"/>
</g>
<path style="fill:#6DC0A7;" d="M448.494,259.964c-22.132,0-41.15-19.105-41.15-41.285v-0.882v-6.768l69.42-70.461
	c4.071-4.15,11.367-1.23,11.367,4.621v74.546C488.131,241.915,470.634,259.964,448.494,259.964z"/>
<path style="fill:#E27DA4;" d="M151.607,214.494V65.665c0-4.295-4.991-6.455-7.999-3.428l-85.14,85.729
	c-21.525,21.657-22.434,57.096-1.274,79.12c21.67,22.553,57.299,22.783,79.255,0.691L151.607,214.494z"/>
<path style="fill:#E8A3C2;" d="M220.748,450.022c3.762,0,6.812-3.05,6.812-6.812c0-0.494,0.019-0.993,0.013-1.47
	c-1.543-28.583-22.599-62.831-42.525-82.521l-18.709-20.042c-18.102-18.403-14.974-48.995,2.645-66.918l2.877-3.281
	c3.557-3.577,8.29-6.851,13.535-9.294l22.999-11.489c-1.032-0.012-2.588-0.694-4.444-1.758l-20.308-22.846l-6.146-11.713
	c-22.165-22.536-57.305-22.082-80.969-1.93c-1.445,1.23-3.796,7.027-5.149,8.404l-2.749,3.329
	c-4.065,4.133-7.373,8.719-10.034,13.573l-12.488,12.494l-0.959,5.375c-4.014,22.549,3.231,45.725,19.247,62.003l133.329,134.186
	C218.64,449.762,219.667,450.022,220.748,450.022z"/>
<path style="fill:#E27DA4;" d="M220.748,450.022c1.936,0,3.679-0.811,4.92-2.108c-22.371-45.689-101.1-132.787-101.1-132.787
	c-16.016-16.278-22.741-39.454-18.728-62.003l-10.253-38.661c-1.445,1.23-2.858,2.515-4.211,3.891l-2.75,3.329
	c-4.065,4.133-7.373,8.719-10.034,13.573L66.103,247.75l-0.959,5.375c-4.014,22.549,2.937,45.725,18.951,62.003l132.079,133.148
	C217.386,449.356,219.002,450.022,220.748,450.022z"/>
<path style="fill:#E8A3C2;" d="M119.736,200.264l-93.262-93.991c-7.397-7.442-19.83-2.134-19.83,8.426v107.389
	c0,32.147,25.747,58.207,57.698,58.207s57.775-26.061,57.775-58.207l1.088-12.532C123.455,206.1,122.163,202.706,119.736,200.264z"
	/>
<path style="fill:#E27DA4;" d="M62.544,259.964c22.132,0,40.625-19.105,40.625-41.285v-0.882v-6.768l-68.895-70.461
	c-4.071-4.15-10.842-1.23-10.842,4.621v74.546C23.431,241.915,40.404,259.964,62.544,259.964z"/>
<polygon style="fill:#DCD08E;" points="230.82,240.972 230.82,295.928 197.632,265.705 "/>
<path style="fill:#E27DA4;" d="M223.284,193.407c-7.677-7.296-18.005-11.798-29.398-11.798c-23.673,0-42.862,19.308-42.862,43.127
	s19.191,43.127,42.862,43.127c2.498,0,4.931-0.259,7.312-0.673c20.182-3.497,35.551-21.149,35.551-42.454
	C236.749,213.194,223.111,193.407,223.284,193.407z"/>
<g>
	<path style="fill:#E8A3C2;" d="M170.807,230.614c0-20.571,16.574-37.248,37.019-37.248c0.587,0,7.478,0.014,15.459,0.041
		c8.274,7.863,13.464,18.973,13.464,31.327c0,21.305-15.368,38.957-35.551,42.454C183.927,264.037,170.807,248.9,170.807,230.614z"
		/>
	<path style="fill:#E8A3C2;" d="M298.332,319.953l-0.933-1.129c-7.98-8.115-20.919-8.777-28.898-0.665l-2.404,2.443l-9.39,10.563
		l-9.39-10.563l0,0l-2.403-2.444c-7.98-8.114-20.917-7.449-28.898,0.664l-0.933,1.129c-8.163,8.3-8.163,21.756,0,30.056
		l39.238,39.386c1.325,1.303,3.404,1.345,4.794,0.159l39.214-39.545C306.495,341.709,306.496,328.252,298.332,319.953z"/>
</g>
<path style="fill:#E27DA4;" d="M298.332,319.953l-0.933-1.129c-7.98-8.115-20.919-8.777-28.898-0.665l-2.365,2.443l-9.351,10.563
	v59.25c0.921,0.008,1.842-0.338,2.544-1.04l39.02-39.367C306.514,341.709,306.496,328.252,298.332,319.953z"/>
<path d="M175.718,345.186c-12.845-12.915-18.715-31.118-15.749-48.778c0.716-4.257-1.797-8.549-6.018-9.455
	c-4.397-0.944-8.644,1.949-9.413,6.33c-4.013,22.842,3.491,46.413,20.072,63.052c0.026,0.026,0.054,0.053,0.081,0.08l20.498,19.986
	c15.997,15.597,26.905,35.756,31.417,57.379c0.243,1.166-1.178,1.941-2.024,1.103L92.742,314.14
	c-0.018-0.018-0.037-0.031-0.055-0.049c-2.371-2.546-4.25-3.683-8.185-3.683H52.788c-4.309,0-8.066,3.32-8.195,7.626
	c-0.133,4.456,3.439,8.111,7.866,8.111H80.47c0.749,0,1.125,0.905,0.596,1.436l-20.212,20.25c-3.084,3.061-3.1,8.045-0.038,11.128
	c1.538,1.549,3.56,2.324,5.583,2.324c2.005,0,4.01-0.762,5.545-2.286l20.344-20.205c0.552-0.548,1.49-0.157,1.49,0.62l-0.007,26.665
	c0,4.309,3.32,8.066,7.626,8.195c4.456,0.134,8.111-3.439,8.111-7.865v-11.155c0-0.877,1.059-1.318,1.681-0.701l108.584,107.63
	c1.49,1.476,3.486,2.28,5.539,2.28c0.568,0,1.139-0.062,1.706-0.187l1.493-0.332c3.626-0.805,6.165-4.038,6.163-7.753
	c-0.02-34.034-14.049-67.22-38.498-91.059L175.718,345.186z"/>
<path d="M153.832,193.286c-2.757,3.359-2.27,8.317,1.089,11.075c3.358,2.757,8.316,2.269,11.075-1.089
	c6.49-7.906,16.099-12.439,26.364-12.439c18.732,0,33.972,15.111,33.972,33.686c0,18.576-15.239,33.687-33.972,33.687
	c-9.085,0-17.622-3.511-24.041-9.885c-3.084-3.063-8.066-3.046-11.128,0.038c-3.063,3.084-3.046,8.066,0.038,11.128
	c9.387,9.323,21.863,14.457,35.131,14.457c1.469,0,2.919-0.077,4.355-0.201l29.79,26.779c1.474,1.325,3.355,2.017,5.263,2.017
	c1.083,0,2.174-0.223,3.202-0.681c2.838-1.265,4.666-4.081,4.666-7.188v-54.895c1.574-4.808,2.434-9.933,2.434-15.255
	c0-27.252-22.299-49.424-49.71-49.424C177.366,175.095,163.323,181.725,153.832,193.286z M214.632,268.686
	c3.315-1.66,6.425-3.667,9.266-5.992v14.322L214.632,268.686z"/>
<circle cx="200.719" cy="231.785" r="8.328"/>
<path d="M360.636,182.929c4.307-0.129,7.626-3.886,7.626-8.195V77.578c0-1.23,1.484-1.849,2.358-0.984l57.299,56.684
	c3.064,3.03,8.069,3.313,11.191,0.342c3.229-3.074,3.26-8.185,0.113-11.298l-73.295-72.51c-2.695-2.667-6.989-3.086-10.205-0.743
	c-2.073,1.511-3.198,4.008-3.198,6.574v119.419C352.525,179.49,356.179,183.062,360.636,182.929z"/>
<path d="M431.005,302.809L297.839,434.867c-0.846,0.838-2.267,0.063-2.024-1.103c4.513-21.616,15.42-41.769,31.414-57.364
	l20.498-19.986c0.027-0.026,0.053-0.053,0.081-0.08c16.531-16.589,24.04-40.067,20.109-62.845c-0.682-3.95-4.206-6.936-8.208-6.704
	c-4.792,0.278-8.134,4.633-7.327,9.22c3.124,17.786-2.737,36.166-15.68,49.18l-20.457,19.947
	c-24.449,23.838-38.479,57.025-38.498,91.059c-0.002,3.715,2.537,6.948,6.164,7.753l1.493,0.332
	c0.566,0.126,1.137,0.187,1.705,0.187c2.053,0,4.051-0.805,5.541-2.282L442.09,313.985c3.086-3.06,3.107-8.042,0.046-11.128
	C439.073,299.77,434.091,299.749,431.005,302.809z"/>
<path d="M508.788,83.683c-3.224-2.333-7.517-1.903-10.206,0.77l-113.22,112.601c-3.056,3.039-3.377,8.045-0.43,11.189
	c3.049,3.252,8.157,3.323,11.293,0.202l97.677-97.142c0.873-0.869,2.361-0.25,2.361,0.982v22.194l-85.505,84.915
	c-3.154,3.133-3.342,8.447-0.127,11.517c1.518,1.449,3.474,2.175,5.431,2.175c2.005,0,4.01-0.762,5.545-2.286l74.657-74.142v25.752
	l-62.089,61.666c-3.154,3.133-3.342,8.447-0.126,11.517c1.518,1.449,3.474,2.174,5.431,2.174c2.005,0,4.01-0.762,5.545-2.286
	l51.24-50.89v18.421c0,26.366-21.553,47.816-48.045,47.816c-13.089,0-25.335-5.116-34.482-14.407
	c-3.265-3.315-8.746-3.127-11.756,0.609c-2.563,3.179-2.061,7.824,0.823,10.716c12.099,12.14,28.211,18.82,45.417,18.82
	c35.17,0,63.783-28.51,63.783-63.554V90.254C512,87.686,510.869,85.188,508.788,83.683z"/>
<path d="M274.559,190.801h8.572c-8.311,8.837-13.412,20.693-13.412,33.717c0,4.864,0.722,9.562,2.045,14.006
	c-0.013,0.179-0.027,0.357-0.027,0.539v55.338c0,2.624,1.167,5.18,3.313,6.689c1.391,0.978,2.981,1.449,4.553,1.449
	c1.906,0,3.789-0.692,5.263-2.017l29.823-26.809c1.561,0.148,3.14,0.23,4.739,0.23c13.147,0,25.516-5.041,34.874-14.203
	c2.914-2.853,3.434-7.503,0.902-10.7c-2.97-3.75-8.438-3.994-11.734-0.721c-6.419,6.375-14.956,9.885-24.041,9.885
	c-18.732,0-33.972-15.111-33.972-33.687c0-18.575,15.239-33.686,33.972-33.686c10.155,0,19.668,4.437,26.154,12.185
	c2.737,3.269,7.585,4.122,10.999,1.567c3.617-2.706,4.21-7.847,1.375-11.3c-9.147-11.143-22.527-17.686-36.909-18.147v-24.926
	c0-4.309-3.321-8.066-7.626-8.195c-4.456-0.134-8.111,3.439-8.111,7.866v12.562c0,0.561-0.678,0.844-1.076,0.448l-9.426-9.362
	c-3.057-3.036-8.063-3.328-11.188-0.363c-3.235,3.068-3.276,8.178-0.135,11.297l9.584,9.519c0.4,0.398,0.119,1.08-0.445,1.08
	h-18.394c-4.426,0-7.999,3.654-7.866,8.111C266.494,187.481,270.251,190.801,274.559,190.801z M296.893,268.551l-9.417,8.465
	v-14.676C290.354,264.748,293.513,266.833,296.893,268.551z"/>
<path d="M304.578,314.712l-0.74-0.897c-0.145-0.175-0.296-0.344-0.455-0.506c-5.518-5.62-13.106-8.845-20.82-8.845
	c-7.418,0-14.353,2.902-19.525,8.171l-2.423,2.466c-0.093,0.094-0.185,0.192-0.273,0.292l-3.577,4.03l-3.577-4.03
	c-0.087-0.099-0.177-0.195-0.27-0.289l-2.422-2.468c-5.175-5.27-12.11-8.173-19.527-8.173c-7.714,0-15.301,3.223-20.82,8.844
	c-0.159,0.163-0.313,0.332-0.456,0.508l-0.74,0.897c-10.939,11.425-10.853,29.783,0.292,41.134l42.038,42.369
	c1.477,1.485,3.485,2.42,5.58,2.42c0.003,0,0.006,0,0.009,0c2.097,0,4.108-0.942,5.583-2.433l41.865-42.342
	C315.433,344.546,315.518,326.137,304.578,314.712z M293.115,344.763l-36.264,36.633l-36.41-36.61
	c-5.227-5.325-5.227-13.988,0-19.312c0.159-0.163,0.312-0.332,0.456-0.508l0.698-0.847c2.556-2.493,5.955-3.917,9.375-3.917
	c2.235,0,5.489,0.6,8.298,3.461l2.282,2.324l9.33,10.514c1.493,1.683,3.635,2.646,5.886,2.646c2.249,0,4.392-0.963,5.886-2.646
	l9.329-10.514l2.284-2.325c2.808-2.86,6.062-3.46,8.297-3.46c3.42,0,6.82,1.424,9.375,3.918l0.7,0.848
	c0.145,0.175,0.297,0.344,0.456,0.506C298.32,330.798,298.32,339.462,293.115,344.763z"/>
<circle cx="311.502" cy="231.785" r="8.328"/>
<path d="M151.364,182.929c-4.307-0.129-7.626-3.886-7.626-8.195V77.588c0-1.232-1.487-1.85-2.36-0.982l-57.27,56.904
	c-3.091,3.057-7.941,3.03-10.998-0.06c-3.056-3.089-2.964-8.071,0.126-11.128l73.328-72.51c2.301-2.277,5.511-2.915,8.487-1.595
	c2.768,1.228,4.423,4.116,4.423,7.144v119.701C159.475,179.49,155.821,183.062,151.364,182.929z"/>
<path d="M5.11,82.766c2.935-1.219,6.447-0.555,8.701,1.686l113.52,112.834c3.081,3.065,3.128,8.046,0.064,11.128
	c-3.066,3.083-8.294,3.095-11.374,0.03l-97.923-97.149c-0.874-0.867-2.36-0.248-2.36,0.983v22.2l84.194,83.342
	c3.084,3.063,3.231,8.045,0.169,11.128c-1.538,1.549-3.495,2.324-5.518,2.324c-2.005,0-4.24-0.762-5.775-2.286l-73.07-72.325v25.752
	l62.593,61.905c3.084,3.063,3.231,8.045,0.169,11.129c-1.538,1.549-3.495,2.324-5.518,2.324c-2.005,0-4.24-0.762-5.775-2.286
	l-51.47-50.891v18.421c0,26.366,21.815,47.816,48.306,47.816c13.089,0,25.466-5.116,34.614-14.407
	c3.277-3.327,8.859-3.124,11.852,0.647c2.546,3.209,1.998,7.863-0.9,10.759c-12.094,12.088-28.415,18.738-45.581,18.738
	C28.859,286.568,0,258.058,0,223.014V90.033C0,86.854,2.175,83.987,5.11,82.766z"/>
<g>
</g>
<g>
</g>
<g>
</g>
<g>
</g>
<g>
</g>
<g>
</g>
<g>
</g>
<g>
</g>
<g>
</g>
<g>
</g>
<g>
</g>
<g>
</g>
<g>
</g>
<g>
</g>
<g>
</g>
</svg>
